<svg width="28" height="29" viewBox="0 0 28 29" fill="none" xmlns="http://www.w3.org/2000/svg">
<circle cx="14.001" cy="14.4663" r="14" fill="#FFB624"/>
<g clip-path="url(#clip0_2108_424)">
<path d="M21.7831 13.9402L17.0217 9.17881C16.7312 8.88831 16.2601 8.88831 15.9696 9.17881C15.6791 9.46937 15.6791 9.94039 15.9696 10.231L19.4609 13.7223H6.74494C6.33409 13.7223 6.00098 14.0554 6.00098 14.4662C6.00098 14.877 6.33409 15.2102 6.74494 15.2102H19.4609L15.9697 18.7015C15.6792 18.9921 15.6792 19.4631 15.9697 19.7536C16.115 19.8988 16.3054 19.9715 16.4958 19.9715C16.6862 19.9715 16.8766 19.8988 17.0219 19.7536L21.7831 14.9923C22.0736 14.7017 22.0736 14.2307 21.7831 13.9402Z" fill="white"/>
</g>
<defs>
<clipPath id="clip0_2108_424">
<rect width="16" height="16" fill="white" transform="translate(6.00098 6.46631)"/>
</clipPath>
</defs>
</svg>
