<svg width="25" height="19" viewBox="0 0 25 19" fill="none" xmlns="http://www.w3.org/2000/svg">
<path d="M5.38477 8.98901H11.5254C12.0653 8.98901 12.5581 9.19311 12.9316 9.52784C13.3051 9.19306 13.798 8.98901 14.3379 8.98901H20.4785V1.44847C20.4785 1.06198 20.1693 0.740373 19.7828 0.739014C19.777 0.739014 20.0227 0.739014 6.08789 0.739014C5.68777 0.739014 5.38477 1.06705 5.38477 1.44847V8.98901Z" fill="#666666"/>
<path d="M13.6348 11.0984V12.739H20.4785C20.4785 11.7004 20.4785 11.4871 20.4785 10.3953H14.3379C13.9502 10.3953 13.6348 10.7107 13.6348 11.0984Z" fill="#666666"/>
<path d="M22.6588 5.61509C22.2254 5.62859 21.8848 5.99215 21.8848 6.42574C21.8848 6.53702 21.8848 13.8415 21.8848 13.4421C21.8848 13.8304 21.57 14.1453 21.1816 14.1453C20.6195 14.1453 4.14787 14.1453 4.68164 14.1453C4.29333 14.1453 3.97852 13.8304 3.97852 13.4421C3.97852 13.1827 3.97852 6.3581 3.97852 6.42574C3.97852 5.99215 3.63787 5.62859 3.20447 5.61509C1.95525 5.57618 0.931641 6.57556 0.931641 7.81713V15.0359C0.931641 16.2009 1.87603 17.1453 3.04102 17.1453H3.97852V17.9223C3.97852 18.3009 4.26947 18.6267 4.64766 18.6445C5.05144 18.6635 5.38477 18.3417 5.38477 17.9421V17.1453H20.4785V17.9223C20.4785 18.3009 20.7695 18.6267 21.1477 18.6445C21.5514 18.6635 21.8848 18.3417 21.8848 17.9421V17.1453H22.8223C23.9873 17.1453 24.9316 16.2009 24.9316 15.0359V7.85674C24.9316 6.55873 23.9 5.57641 22.6588 5.61509Z" fill="#666666"/>
<path d="M12.2285 11.0984C12.2285 10.7107 11.9131 10.3953 11.5254 10.3953H5.38477V12.739H12.2285V11.0984Z" fill="#666666"/>
</svg>
