<svg width="17" height="17" viewBox="0 0 17 17" fill="none" xmlns="http://www.w3.org/2000/svg">
<g clip-path="url(#clip0_2104_287)">
<path d="M16.891 6.18216C16.7862 5.85817 16.4989 5.62806 16.1589 5.59742L11.5409 5.1781L9.71476 0.903944C9.58012 0.590703 9.27347 0.387939 8.93276 0.387939C8.59205 0.387939 8.2854 0.590703 8.15076 0.904676L6.32466 5.1781L1.70589 5.59742C1.36653 5.6288 1.0799 5.85817 0.974547 6.18216C0.869198 6.50614 0.966491 6.86149 1.22321 7.0855L4.7139 10.1469L3.68458 14.681C3.60926 15.0144 3.73866 15.359 4.01528 15.559C4.16396 15.6664 4.33792 15.7211 4.51333 15.7211C4.66458 15.7211 4.81461 15.6803 4.94926 15.5998L8.93276 13.219L12.9148 15.5998C13.2062 15.7751 13.5735 15.7591 13.8495 15.559C14.1263 15.3584 14.2555 15.0137 14.1802 14.681L13.1509 10.1469L16.6416 7.08611C16.8983 6.86149 16.9963 6.50675 16.891 6.18216Z" fill="#FFB624"/>
</g>
<defs>
<clipPath id="clip0_2104_287">
<rect width="16" height="16" fill="white" transform="translate(0.932617 0.0446777)"/>
</clipPath>
</defs>
</svg>
