<svg width="17" height="17" viewBox="0 0 17 17" fill="none" xmlns="http://www.w3.org/2000/svg">
<g clip-path="url(#clip0_2104_384)">
<path d="M10.6235 8.44841L16.0174 11.8584V4.89441L10.6235 8.44841Z" fill="#7F7F7F"/>
<path d="M0.0175781 4.89441V11.8584L5.41158 8.44841L0.0175781 4.89441Z" fill="#7F7F7F"/>
<path d="M15.0176 2.86646H1.01761C0.518607 2.86646 0.122607 3.23846 0.0476074 3.71746L8.01761 8.96846L15.9876 3.71746C15.9126 3.23846 15.5166 2.86646 15.0176 2.86646Z" fill="#7F7F7F"/>
<path d="M9.70762 9.05251L8.29262 9.98451C8.20862 10.0395 8.11362 10.0665 8.01762 10.0665C7.92162 10.0665 7.82662 10.0395 7.74262 9.98451L6.32762 9.05151L0.0496216 13.0225C0.126622 13.4975 0.520622 13.8665 1.01762 13.8665H15.0176C15.5146 13.8665 15.9086 13.4975 15.9856 13.0225L9.70762 9.05251Z" fill="#7F7F7F"/>
</g>
<defs>
<clipPath id="clip0_2104_384">
<rect width="16" height="16" fill="white" transform="translate(0.0175781 0.366455)"/>
</clipPath>
</defs>
</svg>
