<svg width="20" height="21" viewBox="0 0 20 21" fill="none" xmlns="http://www.w3.org/2000/svg">
<g clip-path="url(#clip0_2108_440)">
<path d="M10.0019 20.9251C15.5247 20.9251 20.0018 16.448 20.0018 10.9252C20.0018 5.40241 15.5247 0.925293 10.0019 0.925293C4.47907 0.925293 0.00195312 5.40241 0.00195312 10.9252C0.00195312 16.448 4.47907 20.9251 10.0019 20.9251Z" fill="white"/>
<path d="M16.1264 8.11185C15.6979 8.30188 15.2369 8.4304 14.7535 8.4878C15.2471 8.19207 15.6259 7.72414 15.8047 7.16566C15.3428 7.43964 14.831 7.6384 14.2868 7.74553C13.8508 7.28117 13.2295 6.99097 12.5416 6.99097C11.2218 6.99097 10.1514 8.06141 10.1514 9.38123C10.1514 9.56858 10.1726 9.75093 10.2136 9.92598C8.22709 9.82634 6.46572 8.8748 5.28673 7.42823C5.08102 7.78118 4.96301 8.19207 4.96301 8.63005C4.96301 9.45913 5.3853 10.1911 6.02632 10.6196C5.63468 10.6073 5.26587 10.4998 4.94376 10.3203C4.94358 10.3305 4.94358 10.3406 4.94358 10.3506C4.94358 11.5087 5.76784 12.4747 6.8611 12.6941C6.66074 12.7491 6.44914 12.7781 6.23149 12.7781C6.07712 12.7781 5.92756 12.7633 5.78175 12.7355C6.08586 13.6849 6.96841 14.376 8.01461 14.3954C7.1964 15.0366 6.16589 15.4186 5.04572 15.4186C4.8532 15.4186 4.66247 15.4074 4.47583 15.3851C5.53308 16.0636 6.7898 16.4591 8.13956 16.4591C12.5361 16.4591 14.9405 12.817 14.9405 9.65806C14.9405 9.55449 14.9381 9.45128 14.9335 9.34896C15.4009 9.01205 15.8061 8.59119 16.1264 8.11185Z" fill="#305F64"/>
</g>
<defs>
<clipPath id="clip0_2108_440">
<rect width="20" height="20" fill="white" transform="translate(0.000976562 0.925293)"/>
</clipPath>
</defs>
</svg>
