<svg width="20" height="21" viewBox="0 0 20 21" fill="none" xmlns="http://www.w3.org/2000/svg">
<g clip-path="url(#clip0_2108_451)">
<path d="M10.001 20.9253C15.5239 20.9253 20.001 16.4482 20.001 10.9253C20.001 5.40245 15.5239 0.925293 10.001 0.925293C4.47814 0.925293 0.000976562 5.40245 0.000976562 10.9253C0.000976562 16.4482 4.47814 20.9253 10.001 20.9253Z" fill="white"/>
<path d="M17.0717 3.85327C20.9769 7.75886 20.9773 14.0908 17.0717 17.9963C13.1664 21.9016 6.83418 21.9018 2.92859 17.9963L17.0717 3.85327Z" fill="white"/>
<path d="M19.8004 12.9279L14.8511 7.97876L9.01388 8.64337L5.48303 14.1097L12.0807 20.7072C15.9597 19.8866 19.0093 16.8182 19.8004 12.9279Z" fill="white"/>
<path d="M15.2344 8.99531C15.2344 8.15701 14.5553 7.47754 13.7174 7.47754H6.60029C5.76262 7.47754 5.08362 8.15717 5.08362 8.99531V13.0653C5.08362 13.9036 5.76275 14.583 6.60029 14.583H13.7173C14.5553 14.583 15.2343 13.9034 15.2343 13.0653V8.99531H15.2344ZM9.14362 12.7473V8.92458L12.0426 10.836L9.14362 12.7473Z" fill="#305F64"/>
</g>
<defs>
<clipPath id="clip0_2108_451">
<rect width="20" height="20" fill="white" transform="translate(0.000976562 0.925293)"/>
</clipPath>
</defs>
</svg>
